<?xml version="1.0" encoding="UTF-8"?>
<!DOCTYPE svg PUBLIC "-//W3C//DTD SVG 1.1//EN" "http://www.w3.org/Graphics/SVG/1.1/DTD/svg11.dtd">
<!-- Creator: CorelDRAW X7 -->
<svg xmlns="http://www.w3.org/2000/svg" xml:space="preserve" width="215.9mm" height="279.4mm" version="1.1" style="shape-rendering:geometricPrecision; text-rendering:geometricPrecision; image-rendering:optimizeQuality; fill-rule:evenodd; clip-rule:evenodd"
viewBox="0 0 21590 27940"
 xmlns:xlink="http://www.w3.org/1999/xlink">
 <defs>
  <style type="text/css">
   <![CDATA[
    .str0 {stroke:#ff3300;stroke-width:27.64}
    .fil0 {fill:none}
   ]]>
  </style>
 </defs>
 <g id="NZmap">
  <metadata id="CorelCorpID_0Corel-Layer"/>
  <g id="_831009776">
   <path class="fil0 str0" d="M15506 4425c-33,-28 38,-143 -69,-119 -108,24 -131,-48 -130,-96 0,-48 11,-58 31,-76 20,-41 28,-104 8,-166 -20,-61 51,-57 83,-27 33,30 25,130 48,159 24,28 127,28 130,58 3,30 -107,87 -42,149 65,62 82,138 82,138 0,0 -82,52 -141,-20z"/>
   <path class="fil0 str0" d="M14963 4267c0,0 -63,-24 -36,-87 27,-62 75,9 75,9 0,0 21,90 -39,78z"/>
   <path class="fil0 str0" d="M13025 9785l289 -121 312 -192 408 -48 168 -168 96 -672c0,0 -54,-174 18,-294 72,-121 102,-130 102,-130 33,-51 0,-147 0,-216 -15,-76 -44,-109 -3,-154 23,-26 149,65 210,40 61,-24 49,-176 38,-192 -42,-66 -79,-68 -143,-201l-14 -129c-12,-102 351,-45 258,-212 -7,-12 -74,14 -148,110 -30,38 -28,-61 -42,-142 -18,-110 -60,-250 -68,-283 -22,-82 -103,-112 -103,-281 0,-168 3,-282 -117,-355 -120,-72 -228,-347 -252,-491 -24,-144 -120,-433 -120,-433l-264 -312 0 -216c0,0 24,96 144,144 120,48 216,168 216,168l-96 -240 48 -240 -192 0c0,0 -168,-72 -24,-144 144,-72 -24,-192 -24,-192l-72 120c-144,-120 -336,-240 -240,-96 96,144 288,168 192,288 -96,120 -216,96 -216,96 0,0 -144,-552 -289,-649 -144,-96 -593,-762 -696,-954 -102,-191 -458,-568 -456,-607 1,-38 122,66 215,-185 94,-251 -751,-1035 -763,-1166 0,0 148,69 202,38 41,-24 299,-122 343,-75 39,43 -188,190 -122,356 69,174 283,548 525,461 435,-156 30,42 123,144 205,225 178,-24 309,-39 50,-6 128,111 158,157 8,13 49,-36 90,-28 98,19 252,59 258,184 3,65 301,85 200,97 -58,7 -83,128 34,191 251,136 293,-259 329,-88 17,80 -87,209 -10,266 280,205 206,446 292,623 97,199 191,289 89,330 -77,32 -264,-351 -336,-229 -60,100 12,113 176,174 9,4 -97,200 29,272 62,35 306,290 470,494 60,75 -90,381 -90,561 -1,729 689,653 767,669 79,16 -25,548 221,510 304,-47 -210,-1295 -133,-1375 65,-69 320,85 391,443 51,254 251,-113 343,34 34,54 -181,51 -166,167 11,81 142,-71 183,99 78,324 99,1034 191,1259 192,468 573,251 846,368 328,140 603,423 1139,442 355,12 581,-612 891,-719 541,-248 519,74 863,115 81,10 78,117 -215,622 -81,140 46,721 -54,911 -73,138 -166,284 -298,374 -105,71 -258,-49 -273,154 -14,175 -33,441 -42,565 -5,74 201,107 169,130 -28,20 -124,51 -147,116 -29,85 -19,232 -66,216 -53,-18 -56,-232 -33,-358 17,-93 -97,-102 -146,-108 -206,-25 -509,28 -644,64 -243,64 -445,252 -521,435 -239,581 103,556 123,738 7,71 -95,323 -183,570 -69,192 -88,378 -313,505 -184,105 24,329 -167,446 -226,139 -402,368 -451,553 -250,512 -326,788 -746,1154 -184,160 -388,294 -538,393 -180,118 -317,182 -301,-77 15,-237 -93,-262 -211,-262 -136,-1 -282,136 -311,-15 -8,-42 145,-274 38,-283 -36,-3 -52,153 -106,203 -52,49 -253,46 -278,-85 -29,-153 134,-114 363,-496 115,-191 372,-618 451,-820 314,-861 -214,-1529 -852,-1455 -283,32 -279,-356 -459,-467 -204,-126 -436,-109 -598,-287 -269,-296 -216,-348 -168,-588z"/>
   <path class="fil0 str0" d="M2758 22028c0,0 482,-673 650,-889 168,-216 732,-612 863,-792 131,-180 349,-565 516,-648 166,-84 60,-271 300,-349 241,-79 474,-45 601,-108 117,-58 488,-433 704,-554 88,-48 233,-67 500,-221 133,-77 142,-295 370,-389 384,-158 666,-601 792,-673 126,-72 348,-96 540,-312 193,-216 807,-1103 799,-1435 -5,-229 105,-329 135,-535 7,-54 105,11 99,-36 -9,-72 -55,-230 18,-295 44,-38 150,-6 249,-27 96,-20 185,-92 250,-170 83,-100 181,-294 231,-393 49,-97 240,-116 207,-382 -32,-255 -9,-766 78,-855 40,-41 182,-122 281,-239 157,-186 452,-401 535,-371 65,24 -66,141 -62,313 3,130 137,265 206,330 71,66 194,-201 303,-34 54,82 -32,349 14,496 41,134 67,374 152,426 83,50 224,-79 331,-196 17,-19 159,-68 445,-257 144,-95 211,-620 274,-637 265,-70 118,678 307,610 278,-99 437,-263 481,114 31,276 -474,879 -433,991 96,264 336,216 192,456 -144,240 -841,1129 -1057,1441 -216,312 -288,769 -720,1033 -433,264 -505,456 -481,648 24,193 144,265 361,433 216,168 744,240 312,480 -433,240 -481,-96 -1033,-24 -552,72 -1225,48 -1345,504 -120,457 -432,937 -504,1273 -72,336 -216,1033 -409,1153 -88,55 -50,257 -105,430 -50,160 -237,354 -335,531 -58,104 262,210 184,377 -83,178 -618,117 -679,218 -115,193 -43,284 -194,397 -103,76 -254,280 -428,353 -184,77 13,181 -52,233 -264,212 -1225,642 -1399,488 -173,-154 -202,-233 -522,-156 -320,76 -360,97 -410,-145 -43,-212 -222,-418 -345,-396 -135,24 -326,99 -409,71 -157,-53 118,-294 -277,-432 -395,-137 -325,292 -517,235 -282,-85 -548,-124 -732,-114 -124,6 -137,-145 -161,-275 -19,-103 -166,-74 -199,-146 -91,-194 -110,-660 289,-1018 136,-123 82,-333 239,-531z"/>
   <path class="fil0 str0" d="M4055 25487c-24,-121 -264,-457 -48,-481 216,-24 288,-312 456,0 168,312 337,601 337,601 0,0 72,240 -289,384 -360,144 -912,528 -984,384 -72,-144 264,-456 528,-888z"/>
  </g>
 </g>
</svg>
